<mxfile host="app.diagrams.net" modified="2021-04-22T03:54:51.981Z" agent="5.0 (Macintosh; Intel Mac OS X 10_13_6) AppleWebKit/537.36 (KHTML, like Gecko) Chrome/90.0.4430.72 Safari/537.36" etag="BAUzMldCL2KTpwqrm7RC" version="14.6.3" type="github">
  <diagram id="dDKk5qJWHUeZJMGwBxzV" name="Page-1">
    <mxGraphModel dx="1363" dy="624" grid="1" gridSize="10" guides="1" tooltips="1" connect="1" arrows="1" fold="1" page="1" pageScale="1" pageWidth="827" pageHeight="1169" math="0" shadow="0">
      <root>
        <mxCell id="0" />
        <mxCell id="1" parent="0" />
        <mxCell id="dxDvWX2JMSOas3GGoX1M-14" style="edgeStyle=orthogonalEdgeStyle;rounded=0;orthogonalLoop=1;jettySize=auto;html=1;exitX=1;exitY=0.5;exitDx=0;exitDy=0;entryX=0;entryY=0.5;entryDx=0;entryDy=0;" edge="1" parent="1" source="dxDvWX2JMSOas3GGoX1M-2" target="dxDvWX2JMSOas3GGoX1M-7">
          <mxGeometry relative="1" as="geometry" />
        </mxCell>
        <mxCell id="dxDvWX2JMSOas3GGoX1M-2" value="广州理货提交报关数据" style="rounded=0;whiteSpace=wrap;html=1;" vertex="1" parent="1">
          <mxGeometry x="40" y="70" width="140" height="40" as="geometry" />
        </mxCell>
        <mxCell id="dxDvWX2JMSOas3GGoX1M-13" style="edgeStyle=orthogonalEdgeStyle;rounded=0;orthogonalLoop=1;jettySize=auto;html=1;exitX=1;exitY=0.5;exitDx=0;exitDy=0;entryX=0;entryY=0.5;entryDx=0;entryDy=0;" edge="1" parent="1" source="dxDvWX2JMSOas3GGoX1M-4" target="dxDvWX2JMSOas3GGoX1M-7">
          <mxGeometry relative="1" as="geometry" />
        </mxCell>
        <mxCell id="dxDvWX2JMSOas3GGoX1M-4" value="香港装箱清单导入关务" style="rounded=0;whiteSpace=wrap;html=1;" vertex="1" parent="1">
          <mxGeometry x="40" y="10" width="140" height="40" as="geometry" />
        </mxCell>
        <mxCell id="dxDvWX2JMSOas3GGoX1M-15" style="edgeStyle=orthogonalEdgeStyle;rounded=0;orthogonalLoop=1;jettySize=auto;html=1;exitX=1;exitY=0.5;exitDx=0;exitDy=0;entryX=0;entryY=0.5;entryDx=0;entryDy=0;" edge="1" parent="1" source="dxDvWX2JMSOas3GGoX1M-5" target="dxDvWX2JMSOas3GGoX1M-7">
          <mxGeometry relative="1" as="geometry" />
        </mxCell>
        <mxCell id="dxDvWX2JMSOas3GGoX1M-5" value="直飞订单自行录入(PO)" style="rounded=0;whiteSpace=wrap;html=1;" vertex="1" parent="1">
          <mxGeometry x="40" y="130" width="140" height="40" as="geometry" />
        </mxCell>
        <mxCell id="dxDvWX2JMSOas3GGoX1M-16" style="edgeStyle=orthogonalEdgeStyle;rounded=0;orthogonalLoop=1;jettySize=auto;html=1;exitX=1;exitY=0.5;exitDx=0;exitDy=0;entryX=0;entryY=0.5;entryDx=0;entryDy=0;" edge="1" parent="1" source="dxDvWX2JMSOas3GGoX1M-6" target="dxDvWX2JMSOas3GGoX1M-7">
          <mxGeometry relative="1" as="geometry" />
        </mxCell>
        <mxCell id="dxDvWX2JMSOas3GGoX1M-6" value="关务订单自行录入(KH)" style="rounded=0;whiteSpace=wrap;html=1;" vertex="1" parent="1">
          <mxGeometry x="40" y="190" width="140" height="40" as="geometry" />
        </mxCell>
        <mxCell id="dxDvWX2JMSOas3GGoX1M-17" style="edgeStyle=orthogonalEdgeStyle;rounded=0;orthogonalLoop=1;jettySize=auto;html=1;exitX=1;exitY=0.5;exitDx=0;exitDy=0;entryX=0;entryY=0.5;entryDx=0;entryDy=0;" edge="1" parent="1" source="dxDvWX2JMSOas3GGoX1M-7" target="dxDvWX2JMSOas3GGoX1M-8">
          <mxGeometry relative="1" as="geometry" />
        </mxCell>
        <mxCell id="dxDvWX2JMSOas3GGoX1M-20" value="审核订单" style="edgeLabel;html=1;align=center;verticalAlign=middle;resizable=0;points=[];" vertex="1" connectable="0" parent="dxDvWX2JMSOas3GGoX1M-17">
          <mxGeometry x="-0.25" y="2" relative="1" as="geometry">
            <mxPoint x="10" as="offset" />
          </mxGeometry>
        </mxCell>
        <mxCell id="dxDvWX2JMSOas3GGoX1M-7" value="报关订单数据" style="rounded=0;whiteSpace=wrap;html=1;fillColor=#dae8fc;strokeColor=#6c8ebf;" vertex="1" parent="1">
          <mxGeometry x="290" y="90" width="110" height="60" as="geometry" />
        </mxCell>
        <mxCell id="dxDvWX2JMSOas3GGoX1M-18" style="edgeStyle=orthogonalEdgeStyle;rounded=0;orthogonalLoop=1;jettySize=auto;html=1;exitX=1;exitY=0.5;exitDx=0;exitDy=0;" edge="1" parent="1" source="dxDvWX2JMSOas3GGoX1M-8" target="dxDvWX2JMSOas3GGoX1M-11">
          <mxGeometry relative="1" as="geometry" />
        </mxCell>
        <mxCell id="dxDvWX2JMSOas3GGoX1M-22" value="航次号录入" style="edgeLabel;html=1;align=center;verticalAlign=middle;resizable=0;points=[];" vertex="1" connectable="0" parent="dxDvWX2JMSOas3GGoX1M-18">
          <mxGeometry x="-0.0571" y="-4" relative="1" as="geometry">
            <mxPoint y="-4" as="offset" />
          </mxGeometry>
        </mxCell>
        <mxCell id="dxDvWX2JMSOas3GGoX1M-8" value="报关服务单数据" style="rounded=0;whiteSpace=wrap;html=1;fillColor=#d5e8d4;strokeColor=#82b366;" vertex="1" parent="1">
          <mxGeometry x="510" y="90" width="120" height="60" as="geometry" />
        </mxCell>
        <mxCell id="dxDvWX2JMSOas3GGoX1M-19" style="edgeStyle=orthogonalEdgeStyle;rounded=0;orthogonalLoop=1;jettySize=auto;html=1;exitX=1;exitY=0.5;exitDx=0;exitDy=0;" edge="1" parent="1" source="dxDvWX2JMSOas3GGoX1M-11" target="dxDvWX2JMSOas3GGoX1M-12">
          <mxGeometry relative="1" as="geometry" />
        </mxCell>
        <mxCell id="dxDvWX2JMSOas3GGoX1M-23" value="关联服务单" style="edgeLabel;html=1;align=center;verticalAlign=middle;resizable=0;points=[];" vertex="1" connectable="0" parent="dxDvWX2JMSOas3GGoX1M-19">
          <mxGeometry x="-0.2909" y="2" relative="1" as="geometry">
            <mxPoint x="11" y="2" as="offset" />
          </mxGeometry>
        </mxCell>
        <mxCell id="dxDvWX2JMSOas3GGoX1M-11" value="报关单数据" style="rounded=0;whiteSpace=wrap;html=1;fillColor=#ffe6cc;strokeColor=#d79b00;" vertex="1" parent="1">
          <mxGeometry x="740" y="90" width="120" height="60" as="geometry" />
        </mxCell>
        <mxCell id="dxDvWX2JMSOas3GGoX1M-12" value="舱单数据" style="rounded=0;whiteSpace=wrap;html=1;fillColor=#f8cecc;strokeColor=#b85450;" vertex="1" parent="1">
          <mxGeometry x="970" y="90" width="120" height="60" as="geometry" />
        </mxCell>
        <mxCell id="dxDvWX2JMSOas3GGoX1M-24" value="现有报关系统业务流程" style="rounded=0;whiteSpace=wrap;html=1;" vertex="1" parent="1">
          <mxGeometry x="490" width="430" height="20" as="geometry" />
        </mxCell>
      </root>
    </mxGraphModel>
  </diagram>
</mxfile>
